<svg width="16" height="16" viewBox="0 0 16 16" fill="none" xmlns="http://www.w3.org/2000/svg">
    <path d="M14.7025 12.2335L13.4124 10.9435C13.4866 10.8842 13.5533 10.8174 13.6126 10.7359C13.9092 10.3281 13.835 9.79425 13.7757 9.32716C13.7387 9.03058 13.6942 8.71918 13.7609 8.52641C13.8202 8.34847 14.0278 8.13346 14.228 7.92586C14.5616 7.57739 14.9472 7.17702 14.9472 6.65802C14.9472 6.13902 14.5691 5.73865 14.228 5.39018C14.0278 5.18258 13.8202 4.96756 13.7609 4.78962C13.6942 4.59685 13.7387 4.28545 13.7757 3.98888C13.8425 3.51436 13.9092 2.98054 13.6126 2.58017C13.316 2.17238 12.7822 2.076 12.3077 1.98702C12.0111 1.93512 11.7146 1.87581 11.5515 1.7646C11.3958 1.65338 11.2475 1.37905 11.114 1.11956C10.8842 0.696942 10.6321 0.215014 10.1427 0.0518999C10.0389 0.0148285 9.93514 0 9.82393 0C9.46063 0 9.11216 0.170528 8.7711 0.333642C8.49677 0.467099 8.21503 0.600556 8.00002 0.600556C7.785 0.600556 7.50326 0.467099 7.22893 0.333642C6.88787 0.170528 6.5394 0 6.1761 0C6.06489 0 5.95368 0.0148285 5.85729 0.0518999C5.36053 0.2076 5.10845 0.689527 4.87861 1.11214C4.73774 1.37164 4.59686 1.63855 4.44116 1.75718C4.27805 1.87581 3.97407 1.92771 3.68491 1.97961C3.21781 2.06117 2.68398 2.15755 2.38 2.57275C2.08343 2.98054 2.15757 3.51437 2.21688 3.98146C2.25395 4.27804 2.29844 4.58943 2.23171 4.78221C2.1724 4.96015 1.9648 5.17516 1.76461 5.38276C1.43097 5.73123 1.04543 6.1316 1.04543 6.6506C1.04543 7.1696 1.42356 7.56997 1.76461 7.91844C1.9648 8.12604 2.1724 8.34106 2.23171 8.519C2.29844 8.71177 2.25395 9.02317 2.21688 9.31974C2.15015 9.79425 2.08343 10.3281 2.38 10.7285C2.43931 10.81 2.50604 10.8767 2.58018 10.9361L1.2901 12.2335C0.941628 12.582 1.00836 12.8934 1.05284 13.012C1.09733 13.1307 1.25303 13.4124 1.74237 13.4495L3.01021 13.5533C3.23264 13.5681 3.44765 13.7831 3.4699 14.013L3.57369 15.2808C3.61818 15.8146 3.94441 16 4.21132 16C4.34478 16 4.55979 15.9555 4.78964 15.7257L7.76276 12.7525C7.85173 12.7229 7.93329 12.7081 8.00743 12.7081C8.08157 12.7081 8.16313 12.7229 8.2521 12.7525L11.2178 15.7183C11.4477 15.9481 11.6553 15.9926 11.7961 15.9926C12.063 15.9926 12.3967 15.7998 12.4338 15.2734L12.5376 14.0056C12.5524 13.7831 12.7674 13.5681 12.9972 13.5459L14.2651 13.4421C14.7544 13.405 14.9101 13.1233 14.9546 13.0046C14.9843 12.8934 15.051 12.582 14.7025 12.2335ZM10.2021 7.82206L10.7211 10.8397L8.00743 9.41613L5.30122 10.8397L5.82022 7.82206L3.63301 5.68675L6.65803 5.24931L8.01484 2.50602L9.37166 5.24931L12.3967 5.68675L10.2021 7.82206Z" fill="#237BEF"/>
</svg>
